<svg width="200" height="200" viewBox="0 0 200 200" fill="none" xmlns="http://www.w3.org/2000/svg">
  <defs>
    <linearGradient id="gradient" x1="0%" y1="0%" x2="100%" y2="100%">
      <stop offset="0%" stop-color="#007bff" /> <stop offset="100%" stop-color="#00bcd4" /> </linearGradient>
  </defs>

  <circle cx="100" cy="100" r="95" fill="url(#gradient)" />

  <rect x="30" y="80" width="30" height="70" rx="5" ry="5" fill="#ffffff" opacity="0.8"/>
  <rect x="70" y="60" width="40" height="90" rx="5" ry="5" fill="#ffffff" opacity="0.8"/>
  <rect x="120" y="90" width="25" height="60" rx="5" ry="5" fill="#ffffff" opacity="0.8"/>
  <rect x="150" y="70" width="30" height="80" rx="5" ry="5" fill="#ffffff" opacity="0.8"/>

  <path d="M50 110 L70 90 L90 110 L110 90 L130 110 L150 90" stroke="#ffffff" stroke-width="5" stroke-linecap="round" stroke-linejoin="round" opacity="0.9"/>
  <circle cx="50" cy="110" r="3" fill="#ffffff" opacity="0.9"/>
  <circle cx="70" cy="90" r="3" fill="#ffffff" opacity="0.9"/>
  <circle cx="90" cy="110" r="3" fill="#ffffff" opacity="0.9"/>
  <circle cx="110" cy="90" r="3" fill="#ffffff" opacity="0.9"/>
  <circle cx="130" cy="110" r="3" fill="#ffffff" opacity="0.9"/>
  <circle cx="150" cy="90" r="3" fill="#ffffff" opacity="0.9"/>

  <text x="78" y="85" font-family="Inter, sans-serif" font-size="20" fill="#007bff" font-weight="bold">W</text>
</svg>
